HIERARCHY
ROOT root
{
	OFFSET 0.000000 0.000000 0.000000
	CHANNELS 6 Xposition Yposition Zposition Zrotation Yrotation Xrotation
	JOINT lhip
	{
		OFFSET 0.058581 -0.082280 -0.017664
		CHANNELS 3 Zrotation Yrotation Xrotation
		JOINT lknee
		{
			OFFSET 0.043451 -0.386469 0.008037
			CHANNELS 3 Zrotation Yrotation Xrotation
			JOINT lankle
			{
				OFFSET -0.014790 -0.426874 -0.037428
				CHANNELS 3 Zrotation Yrotation Xrotation
				JOINT ltoe
				{
					OFFSET 0.041054 -0.060286 0.122042
					CHANNELS 3 Zrotation Yrotation Xrotation
					End Site
					{
						OFFSET 0.000000 0.000000 0.000000
					}
				}
			}
		}
	}
	JOINT rhip
	{
		OFFSET -0.060310 -0.090513 -0.013543
		CHANNELS 3 Zrotation Yrotation Xrotation
		JOINT rknee
		{
			OFFSET -0.043257 -0.383688 -0.004843
			CHANNELS 3 Zrotation Yrotation Xrotation
			JOINT rankle
			{
				OFFSET 0.019056 -0.420046 -0.034562
				CHANNELS 3 Zrotation Yrotation Xrotation
				JOINT rtoe
				{
					OFFSET -0.034840 -0.062106 0.130323
					CHANNELS 3 Zrotation Yrotation Xrotation
					End Site
					{
						OFFSET 0.000000 0.000000 0.000000
					}
				}
			}
		}
	}
	JOINT lowerback
	{
		OFFSET 0.004439 0.124404 -0.038385
		CHANNELS 3 Zrotation Yrotation Xrotation
		JOINT upperback
		{
			OFFSET 0.004488 0.137956 0.026820
			CHANNELS 3 Zrotation Yrotation Xrotation
			JOINT chest
			{
				OFFSET -0.002265 0.056032 0.002855
				CHANNELS 3 Zrotation Yrotation Xrotation
				JOINT lowerneck
				{
					OFFSET -0.013390 0.211636 -0.033468
					CHANNELS 3 Zrotation Yrotation Xrotation
					JOINT upperneck
					{
						OFFSET 0.010113 0.088937 0.050410
						CHANNELS 3 Zrotation Yrotation Xrotation
						End Site
						{
							OFFSET 0.000000 0.000000 0.000000
						}
					}
				}
				JOINT lclavicle
				{
					OFFSET 0.071702 0.114000 -0.018898
					CHANNELS 3 Zrotation Yrotation Xrotation
					JOINT lshoulder
					{
						OFFSET 0.122921 0.045205 -0.019046
						CHANNELS 3 Zrotation Yrotation Xrotation
						JOINT lelbow
						{
							OFFSET 0.255332 -0.015649 -0.022946
							CHANNELS 3 Zrotation Yrotation Xrotation
							JOINT lwrist
							{
								OFFSET 0.265709 0.012698 -0.007375
								CHANNELS 3 Zrotation Yrotation Xrotation
								End Site
								{
									OFFSET 0.000000 0.000000 0.000000
								}
							}
						}
					}
				}
				JOINT rclavicle
				{
					OFFSET -0.082954 0.112472 -0.023707
					CHANNELS 3 Zrotation Yrotation Xrotation
					JOINT rshoulder
					{
						OFFSET -0.113228 0.046853 -0.008472
						CHANNELS 3 Zrotation Yrotation Xrotation
						JOINT relbow
						{
							OFFSET -0.260127 -0.014369 -0.031269
							CHANNELS 3 Zrotation Yrotation Xrotation
							JOINT rwrist
							{
								OFFSET -0.269108 0.006794 -0.006027
								CHANNELS 3 Zrotation Yrotation Xrotation
								End Site
								{
									OFFSET 0.000000 0.000000 0.000000
								}
							}
						}
					}
				}
			}
		}
	}
}
MOTION
Frames: 11
Frame Time: 0.033333
0.258563 0.805030 1.001125 27.962948 2.344669 82.661737 2.546372 4.498612 10.134423 -3.878652 -4.436292 -0.361095 1.710624 11.499561 -9.826405 0.000000 -0.000000 0.000000 3.919485 -4.756224 4.206551 2.277341 -6.002241 11.061847 -0.165768 -14.041831 -13.171638 0.000000 -0.000000 0.000000 2.073703 -0.739896 4.339097 0.052904 -3.235607 5.286823 -1.114031 -1.344325 1.549644 1.473947 -1.328050 4.841733 4.442049 -2.668096 3.756109 -20.190970 -2.528518 6.697086 -38.810831 1.407891 10.297368 -8.599630 -24.942657 26.504550 -15.769448 -12.217987 9.285356 17.614772 4.253389 8.428794 43.047106 -4.877887 12.464503 4.854086 19.574096 31.689179 21.902130 2.417561 11.899244 
0.257706 0.805056 1.001091 27.946010 2.355824 82.628284 2.638349 4.466333 10.148089 -3.932262 -4.373720 -0.353834 1.613201 11.474005 -9.824668 0.000000 -0.000000 0.000000 3.995071 -4.707963 4.215291 2.247579 -6.083898 11.060914 -0.247682 -13.978823 -13.157255 0.000000 -0.000000 0.000000 2.039336 -0.688865 4.492742 0.083001 -3.242119 5.160715 -1.056764 -1.375482 1.599712 1.519934 -1.293652 4.713131 4.382235 -2.754686 3.886773 -20.204959 -2.552161 6.646346 -38.902750 1.524346 10.375107 -8.540740 -24.925480 26.549383 -15.751575 -12.310322 9.215369 17.505369 4.309387 8.393367 43.177569 -5.062236 12.531275 4.824979 19.740392 31.985783 22.014848 2.486187 11.455318 
0.257113 0.805122 1.001074 27.973009 2.336978 82.629043 2.653095 4.437501 10.125686 -3.943159 -4.369053 -0.349911 1.599296 11.470049 -9.797086 0.000000 -0.000000 0.000000 4.002980 -4.690869 4.194774 2.260615 -6.107298 11.055389 -0.271011 -13.976872 -13.156461 0.000000 -0.000000 0.000000 2.037136 -0.688160 4.525457 0.079695 -3.252359 5.149298 -1.071760 -1.380364 1.597686 1.543505 -1.293392 4.713108 4.432895 -2.788651 3.900052 -20.246861 -2.564865 6.658849 -38.862105 1.528825 10.380027 -8.643075 -24.857619 26.484726 -15.779921 -12.273119 9.270708 17.499959 4.300622 8.378544 43.247364 -5.149921 12.580504 4.827969 19.763665 32.054976 22.134317 2.431779 11.417828 
0.256451 0.805214 1.001093 27.994368 2.320277 82.639540 2.674343 4.421997 10.082372 -3.950298 -4.351845 -0.337980 1.576491 11.445381 -9.773836 0.000000 -0.000000 0.000000 4.027727 -4.676998 4.159065 2.259647 -6.139112 11.049995 -0.287829 -13.972276 -13.149776 0.000000 -0.000000 0.000000 2.014656 -0.700652 4.560313 0.085315 -3.259822 5.142392 -1.060301 -1.383610 1.586862 1.565454 -1.283359 4.727461 4.460451 -2.766338 3.909489 -20.289134 -2.566442 6.658555 -38.912660 1.535206 10.389320 -8.595302 -24.830969 26.480204 -15.879120 -12.249927 9.322765 17.520377 4.288921 8.377866 43.291540 -5.209363 12.590122 4.808668 19.685804 32.113837 22.314370 2.379269 11.414715 
0.256085 0.805275 1.001114 28.003768 2.319745 82.639623 2.696352 4.416987 10.068650 -3.953159 -4.338427 -0.343546 1.553010 11.424196 -9.758545 0.000000 -0.000000 0.000000 4.045837 -4.665513 4.153349 2.267152 -6.165011 11.033410 -0.294984 -13.962953 -13.139687 0.000000 -0.000000 0.000000 1.998938 -0.710402 4.591181 0.093308 -3.259025 5.140920 -1.041365 -1.391368 1.580855 1.585615 -1.272627 4.737003 4.461790 -2.732356 3.901316 -20.307130 -2.557584 6.657043 -38.988619 1.531854 10.397230 -8.483440 -24.848250 26.501989 -15.971416 -12.287639 9.316542 17.527146 4.272726 8.385922 43.305304 -5.230627 12.596848 4.809245 19.670141 32.177337 22.375884 2.382322 11.398655 
0.255624 0.805390 1.001134 28.005479 2.313369 82.642158 2.719156 4.416666 10.047083 -3.962140 -4.324905 -0.348856 1.532086 11.398887 -9.737686 0.000000 -0.000000 0.000000 4.060539 -4.653593 4.132309 2.276998 -6.181934 11.027647 -0.302781 -13.956159 -13.131299 0.000000 -0.000000 0.000000 1.966498 -0.714626 4.630386 0.105716 -3.259185 5.138026 -1.022597 -1.399622 1.578600 1.621320 -1.246577 4.742881 4.470402 -2.723171 3.907026 -20.315414 -2.555811 6.662261 -38.995972 1.511665 10.420880 -8.538588 -24.889497 26.559039 -16.030427 -12.325341 9.297935 17.538335 4.254888 8.402092 43.325272 -5.256163 12.617225 4.837245 19.693570 32.217531 22.390638 2.395426 11.410343 
0.255190 0.805560 1.001183 27.984570 2.301676 82.638012 2.736783 4.426838 10.035561 -3.979555 -4.313063 -0.339574 1.539186 11.378427 -9.742461 0.000000 -0.000000 0.000000 4.072952 -4.635866 4.109131 2.274922 -6.188150 11.042957 -0.307242 -13.943490 -13.124922 0.000000 -0.000000 0.000000 1.924257 -0.708166 4.675578 0.118750 -3.260356 5.138071 -1.003409 -1.404219 1.566943 1.650264 -1.227776 4.756318 4.483700 -2.737107 3.949590 -20.311274 -2.580405 6.678912 -39.009339 1.499416 10.434992 -8.618550 -24.908176 26.599472 -15.991804 -12.310762 9.316146 17.535597 4.266554 8.439278 43.388113 -5.280598 12.605373 4.840977 19.715370 32.219022 22.374351 2.413261 11.423047 
0.254786 0.805725 1.001217 27.955871 2.297968 82.632057 2.751635 4.430361 10.037142 -3.983834 -4.293356 -0.350502 1.544686 11.372462 -9.730709 0.000000 -0.000000 0.000000 4.097724 -4.614123 4.093764 2.264286 -6.189683 11.048161 -0.314867 -13.930890 -13.111329 0.000000 -0.000000 0.000000 1.885175 -0.709341 4.718497 0.133927 -3.264243 5.143790 -0.983294 -1.400690 1.554784 1.661990 -1.221533 4.770302 4.498355 -2.756447 3.990005 -20.296990 -2.608741 6.698471 -39.049037 1.488448 10.433204 -8.635341 -24.925384 26.609788 -15.941389 -12.292078 9.324424 17.540275 4.297263 8.487072 43.434488 -5.285920 12.580332 4.834314 19.723295 32.224378 22.374984 2.419955 11.429282 
0.254451 0.805900 1.001233 27.925090 2.296858 82.623569 2.763416 4.435400 10.042432 -3.986705 -4.275081 -0.370105 1.541336 11.374096 -9.710047 0.000000 -0.000000 0.000000 4.115387 -4.604616 4.079504 2.259584 -6.183343 11.051724 -0.326630 -13.915679 -13.097337 0.000000 -0.000000 0.000000 1.866107 -0.717625 4.747924 0.141069 -3.270541 5.161440 -0.976174 -1.393338 1.548767 1.653880 -1.220974 4.782645 4.513949 -2.781861 4.016502 -20.292706 -2.639937 6.716857 -39.072758 1.476853 10.427999 -8.621422 -24.925965 26.582516 -15.908209 -12.291822 9.313858 17.560069 4.327299 8.527109 43.443987 -5.278795 12.574015 4.849280 19.731197 32.237384 22.352571 2.424883 11.431938 
0.254122 0.806147 1.001201 27.893878 2.292309 82.619656 2.778686 4.439805 10.024935 -4.003536 -4.246963 -0.374650 1.541163 11.364099 -9.685807 0.000000 -0.000000 0.000000 4.118312 -4.603814 4.062249 2.269035 -6.182484 11.038825 -0.352547 -13.890620 -13.081469 0.000000 -0.000000 0.000000 1.861176 -0.713686 4.770730 0.140180 -3.290950 5.170556 -0.974578 -1.400570 1.538163 1.636407 -1.215809 4.788358 4.504602 -2.779707 4.087862 -20.277937 -2.693741 6.752249 -39.092381 1.470418 10.419999 -8.622470 -24.872610 26.583399 -15.931180 -12.306714 9.297582 17.543201 4.356472 8.571427 43.493045 -5.255555 12.556228 4.841214 19.699947 32.255708 22.350138 2.433918 11.398203 
0.253940 0.806280 1.001160 27.871537 2.289031 82.627679 2.783455 4.447854 10.013133 -4.000589 -4.241285 -0.408203 1.550277 11.359662 -9.647889 0.000000 -0.000000 0.000000 4.107373 -4.611953 4.059846 2.293802 -6.175293 10.999021 -0.361504 -13.859456 -13.062964 0.000000 -0.000000 0.000000 1.879551 -0.709258 4.773161 0.130290 -3.299881 5.151699 -0.987271 -1.399657 1.538553 1.622748 -1.228997 4.769926 4.492282 -2.800394 4.176362 -20.234781 -2.705372 6.754029 -39.090511 1.442297 10.424080 -8.683563 -24.816961 26.642772 -15.961340 -12.307193 9.309099 17.496970 4.326281 8.574197 43.546810 -5.235027 12.535050 4.827720 19.653303 32.319726 22.396989 2.418230 11.405371 
